HIERARCHY
ROOT Hips
{
	OFFSET 0.000000 0.000000 0.000000
	CHANNELS 6 Xposition Yposition Zposition Xrotation Yrotation Zrotation
	JOINT LeftUpLeg_virtual
	{
		OFFSET 0.000000 0.000000 0.000000
		CHANNELS 3 Xrotation Yrotation Zrotation
		JOINT LeftUpLeg
		{
			OFFSET 13.026900 -6.336304 -1.092800
			CHANNELS 3 Xrotation Yrotation Zrotation
			JOINT LeftLeg
			{
				OFFSET 0.524474 -46.096886 9.782700
				CHANNELS 3 Xrotation Yrotation Zrotation
				JOINT LeftFoot
				{
					OFFSET -0.524474 -53.427422 -12.948200
					CHANNELS 3 Xrotation Yrotation Zrotation
					JOINT LeftToeBase
					{
						OFFSET 0.192200 -14.009700 16.364100
						CHANNELS 3 Xrotation Yrotation Zrotation
						JOINT LeftToe_End
						{
							OFFSET -1.784700 -0.561700 9.474800
							CHANNELS 3 Xrotation Yrotation Zrotation
							End Site
							{
								OFFSET 0 0 0
							}
						}
					}
				}
			}
		}
	}
	JOINT RightUpLeg_virtual
	{
		OFFSET 0.000000 0.000000 0.000000
		CHANNELS 3 Xrotation Yrotation Zrotation
		JOINT RightUpLeg
		{
			OFFSET -12.883000 -6.336304 -1.092800
			CHANNELS 3 Xrotation Yrotation Zrotation
			JOINT RightLeg
			{
				OFFSET -0.524587 -46.096825 9.782800
				CHANNELS 3 Xrotation Yrotation Zrotation
				JOINT RightFoot
				{
					OFFSET 0.524587 -53.427383 -12.948300
					CHANNELS 3 Xrotation Yrotation Zrotation
					JOINT RightToeBase
					{
						OFFSET -0.192200 -14.009700 16.364100
						CHANNELS 3 Xrotation Yrotation Zrotation
						JOINT RightToe_End
						{
							OFFSET 1.784700 -0.561700 9.474800
							CHANNELS 3 Xrotation Yrotation Zrotation
							End Site
							{
								OFFSET 0 0 0
							}
						}
					}
				}
			}
		}
	}
	JOINT Spine_virtual
	{
		OFFSET 0.000000 0.000000 0.000000
		CHANNELS 3 Xrotation Yrotation Zrotation
		JOINT Spine
		{
			OFFSET 0.072000 7.257294 -0.789700
			CHANNELS 3 Xrotation Yrotation Zrotation
			JOINT Spine1
			{
				OFFSET 0.000000 12.508769 -0.658067
				CHANNELS 3 Xrotation Yrotation Zrotation
				JOINT Spine1_split
				{
					OFFSET 0.000000 12.508769 -0.658067
					CHANNELS 3 Xrotation Yrotation Zrotation
					JOINT Spine2
					{
						OFFSET 0.000000 12.508769 -0.658067
						CHANNELS 3 Xrotation Yrotation Zrotation
						JOINT Neck_virtual
						{
							OFFSET 0.000000 0.000000 0.000000
							CHANNELS 3 Xrotation Yrotation Zrotation
							JOINT Neck
							{
								OFFSET 0.000000 14.033295 7.520400
								CHANNELS 3 Xrotation Yrotation Zrotation
								JOINT Head
								{
									OFFSET 0.000000 8.198502 5.703100
									CHANNELS 3 Xrotation Yrotation Zrotation
									JOINT HeadTop_End
									{
										OFFSET 0.000000 17.760803 13.332701
										CHANNELS 3 Xrotation Yrotation Zrotation
										End Site
										{
											OFFSET 0 0 0
										}
									}
								}
							}
						}
						JOINT LeftShoulder_virtual
						{
							OFFSET 0.000000 0.000000 0.000000
							CHANNELS 3 Xrotation Yrotation Zrotation
							JOINT LeftShoulder
							{
								OFFSET 6.292450 5.785301 -0.669000
								CHANNELS 3 Xrotation Yrotation Zrotation
								JOINT LeftShoulder_split
								{
									OFFSET 6.292450 5.785301 -0.669000
									CHANNELS 3 Xrotation Yrotation Zrotation
									JOINT LeftArm
									{
										OFFSET 13.907140 -6.093903 1.965100
										CHANNELS 3 Xrotation Yrotation Zrotation
										JOINT LeftForeArm
										{
											OFFSET 34.140198 0.000000 0.000000
											CHANNELS 3 Xrotation Yrotation Zrotation
											JOINT LeftHand
											{
												OFFSET 40.960209 0.000000 0.000000
												CHANNELS 3 Xrotation Yrotation Zrotation
												End Site
												{
													OFFSET 0 0 0
												}
											}
										}
									}
								}
							}
						}
						JOINT RightShoulder_virtual
						{
							OFFSET 0.000000 0.000000 0.000000
							CHANNELS 3 Xrotation Yrotation Zrotation
							JOINT RightShoulder
							{
								OFFSET -6.292450 5.785301 -0.669000
								CHANNELS 3 Xrotation Yrotation Zrotation
								JOINT RightShoulder_split
								{
									OFFSET -6.292450 5.785301 -0.669000
									CHANNELS 3 Xrotation Yrotation Zrotation
									JOINT RightArm
									{
										OFFSET -13.907140 -6.093903 1.965100
										CHANNELS 3 Xrotation Yrotation Zrotation
										JOINT RightForeArm
										{
											OFFSET -34.140198 0.000000 0.000000
											CHANNELS 3 Xrotation Yrotation Zrotation
											JOINT RightHand
											{
												OFFSET -40.960209 0.000000 0.000000
												CHANNELS 3 Xrotation Yrotation Zrotation
												End Site
												{
													OFFSET 0 0 0
												}
											}
										}
									}
								}
							}
						}
					}
				}
			}
		}
	}
}
MOTION
Frames: 4
Frame Time: 0.03333333
-0.287461 88.398193 2.239719 0.000000 0.000000 0.000000 7.491386 2.862865 0.010210 22.707642 18.051973 3.988453 25.458430 -7.394604 7.501881 -45.014297 -2.088968 -0.625099 -14.032936 -0.000002 -0.000000 0.000000 0.000000 0.000000 7.491386 2.862865 0.010210 -64.761969 -0.120650 -3.212492 71.217850 -2.114017 0.061748 -14.332990 3.001805 -4.555746 1.710517 -0.002383 0.399949 0.000000 0.000000 0.000000 7.491386 2.862865 0.010210 1.426710 -2.635557 -1.543101 4.463939 -2.897045 3.069453 0.000000 0.000000 0.000000 0.000000 0.000000 0.000000 4.470559 -2.960905 2.997964 -6.646407 2.329848 -0.789045 -22.799699 6.183979 9.466395 0.000000 0.000000 0.000000 4.470559 -2.960905 2.997964 -0.863857 7.389830 -0.025978 0.000000 0.000000 0.000000 -11.563467 10.383924 -66.345514 -179.999978 -64.819889 -179.999991 0.000000 0.000000 0.000000 4.470559 -2.960905 2.997964 0.518555 -7.917608 14.973078 0.000000 0.000000 0.000000 -19.108962 0.823919 54.259999 -179.999937 65.206108 179.999937 0.000000 0.000000 0.000000 
0.099369 94.719154 2.853836 0.000000 0.000000 0.000000 7.046510 6.350273 1.263380 17.979469 14.308389 2.809391 27.497394 -4.471581 9.754650 -27.100425 -1.170545 -0.962751 -32.297294 -0.000002 -0.000008 0.000000 0.000000 0.000000 7.046510 6.350273 1.263380 -57.284687 -0.171245 -5.838260 62.994848 -3.673428 -0.306010 -13.027876 2.955865 -5.115686 1.490677 -0.005669 0.615438 0.000000 0.000000 0.000000 7.046510 6.350273 1.263380 2.196195 -2.727377 -0.910654 3.099219 -3.162404 2.168580 0.000000 0.000000 0.000000 0.000000 0.000000 0.000000 3.091625 -3.180354 2.120447 -5.647365 2.000596 -1.393998 -18.366983 3.484119 8.410584 0.000000 0.000000 0.000000 3.091625 -3.180354 2.120447 -0.472605 4.837151 -0.286772 0.000000 0.000000 0.000000 -18.246982 6.118547 -64.201121 179.999964 -68.040746 179.999937 0.000000 0.000000 0.000000 3.091625 -3.180354 2.120447 0.323427 -7.582997 12.788908 0.000000 0.000000 0.000000 -22.735697 4.589342 55.000525 -179.999937 65.453177 179.999937 0.000000 0.000000 0.000000 
0.663527 102.146812 2.671974 0.000000 0.000000 0.000000 5.832144 9.586145 1.828558 9.120291 10.669898 3.094814 31.157267 0.527310 9.989681 6.632887 -0.978076 -1.815712 -53.522913 0.685608 -4.780942 0.000000 0.000000 0.000000 5.832144 9.586145 1.828558 -48.323168 -0.917611 -7.154481 51.686186 -5.608528 -1.136108 -8.082312 2.837176 -5.206443 -0.641244 -0.004976 0.572099 0.000000 0.000000 0.000000 5.832144 9.586145 1.828558 4.059937 -2.366698 0.577732 2.040740 -3.016033 1.391133 0.000000 0.000000 0.000000 0.000000 0.000000 0.000000 2.006031 -2.989533 1.398626 -4.440899 1.612599 -2.281643 -14.196190 -0.020069 7.284554 0.000000 0.000000 0.000000 2.006031 -2.989533 1.398626 0.068471 1.355724 -0.866199 0.000000 0.000000 0.000000 -25.917119 -0.435045 -62.080662 -179.999950 -72.913991 -179.999964 0.000000 0.000000 0.000000 2.006031 -2.989533 1.398626 0.210350 -5.995287 10.576177 0.000000 0.000000 0.000000 -27.995665 7.628510 54.628748 -179.999964 66.269145 179.999964 0.000000 0.000000 0.000000 
1.164244 108.262085 1.287701 0.000000 0.000000 0.000000 4.279546 12.665383 1.015490 2.590886 8.064826 4.277829 34.313139 1.860843 6.112507 28.926466 -0.807430 3.329378 -44.490083 5.203755 -15.726178 0.000000 0.000000 0.000000 4.279546 12.665383 1.015490 -41.220960 -1.621759 -7.007624 41.135409 -9.260370 -2.266733 1.779132 2.237007 -2.656133 -5.836451 -0.000001 0.000002 0.000000 0.000000 0.000000 4.279546 12.665383 1.015490 5.812722 -1.813763 2.886024 1.949359 -2.659795 0.899519 0.000000 0.000000 0.000000 0.000000 0.000000 0.000000 1.896970 -2.616141 0.938717 -3.296965 1.144834 -3.044796 -10.632061 -3.935968 6.843427 0.000000 0.000000 0.000000 1.896970 -2.616141 0.938717 0.568129 -2.178353 -0.868056 0.000000 0.000000 0.000000 -35.106691 -7.404373 -61.207040 179.999909 -78.716742 179.999868 0.000000 0.000000 0.000000 1.896970 -2.616141 0.938717 0.207310 -3.936308 8.797191 0.000000 0.000000 0.000000 -35.419131 9.963638 52.813420 -179.999868 68.060807 179.999855 0.000000 0.000000 0.000000 
